<?xml version="1.0" encoding="UTF-8" standalone="no"?>
<!-- Created with Inkscape (http://www.inkscape.org/) -->

<svg
   xmlns:dc="http://purl.org/dc/elements/1.1/"
   xmlns:cc="http://creativecommons.org/ns#"
   xmlns:rdf="http://www.w3.org/1999/02/22-rdf-syntax-ns#"
   xmlns:svg="http://www.w3.org/2000/svg"
   xmlns="http://www.w3.org/2000/svg"
   xmlns:sodipodi="http://sodipodi.sourceforge.net/DTD/sodipodi-0.dtd"
   xmlns:inkscape="http://www.inkscape.org/namespaces/inkscape"
   width="1200"
   height="69.721542"
   id="svg2"
   version="1.1"
   inkscape:version="0.91 r13725"
   sodipodi:docname="banner.svg"
   inkscape:export-filename="/home/ekleinod/working/git/tt-schiri/resources/logo/banner.svg.png"
   inkscape:export-xdpi="90"
   inkscape:export-ydpi="90">
  <defs
     id="defs4" />
  <sodipodi:namedview
     id="base"
     pagecolor="#ffffff"
     bordercolor="#666666"
     borderopacity="1.0"
     inkscape:pageopacity="0.0"
     inkscape:pageshadow="2"
     inkscape:zoom="1.4466667"
     inkscape:cx="600"
     inkscape:cy="34.860771"
     inkscape:document-units="px"
     inkscape:current-layer="layer2"
     showgrid="false"
     inkscape:window-width="1920"
     inkscape:window-height="1004"
     inkscape:window-x="0"
     inkscape:window-y="25"
     inkscape:window-maximized="1"
     fit-margin-top="0"
     fit-margin-left="0"
     fit-margin-right="0"
     fit-margin-bottom="0" />
  <metadata
     id="metadata7">
    <rdf:RDF>
      <cc:Work
         rdf:about="">
        <dc:format>image/svg+xml</dc:format>
        <dc:type
           rdf:resource="http://purl.org/dc/dcmitype/StillImage" />
        <dc:title></dc:title>
      </cc:Work>
    </rdf:RDF>
  </metadata>
  <g
     inkscape:groupmode="layer"
     id="layer2"
     inkscape:label="Logo"
     transform="translate(0,-20.278033)">
    <g
       id="g3769"
       transform="translate(0,-0.00224976)">
      <g
         transform="matrix(0.6,0,0,0.6,0,35.999828)"
         id="g2989">
        <path
           style="fill:#e20a17;fill-opacity:1;stroke:none"
           d="m 0,0 0,70 40.1875,0 c -0.861975,0 -1.633367,-0.131511 -2.34375,-0.375 -0.710397,-0.243489 -1.320858,-0.648437 -1.78125,-1.25 -0.458432,-0.615884 -0.758598,-1.45182 -0.9375,-2.46875 -0.165133,-1.031245 -0.150313,-2.296869 0.0625,-3.84375 l 1.59375,-11.59375 -1.96875,0 c -0.93741,1.025536 -1.856345,2.077413 -2.75,3.15625 -0.0094,0.04051 -0.02142,0.08494 -0.03125,0.125 -0.292164,1.19037 -0.774026,2.191318 -1.46875,2.96875 -5.222203,4.285304 -9.744091,2.670207 -11,2.125 C 18.530068,58.395556 18.067972,58.463854 16.40625,56.5 L 8.375,29 l 4.34375,-1.3125 2.375,7.40625 c 0.143434,0.450394 0.260176,0.960309 0.40625,1.5 0.141726,0.526095 0.286255,1.010943 0.40625,1.46875 l 0.40625,1.625 0.21875,-0.0625 c 0.09399,-0.55602 0.220203,-1.083521 0.40625,-1.59375 0.186044,-0.510181 0.43542,-1.006589 0.75,-1.4375 0.321947,-0.448241 0.716601,-0.842089 1.1875,-1.1875 0.470892,-0.345358 1.042894,-0.60718 1.6875,-0.8125 1.007914,-0.320979 2.007052,-0.364913 3,-0.125 0.992931,0.239968 1.928726,0.756624 2.84375,1.5625 0.915002,0.805928 1.796155,1.911859 2.59375,3.28125 0.809286,1.365705 1.507782,2.999577 2.125,4.9375 0.625877,1.965255 1.022345,3.747941 1.15625,5.34375 0.01813,0.202624 0.02094,0.397434 0.03125,0.59375 0.746773,-0.845443 1.508076,-1.688654 2.28125,-2.5 1.320472,-1.385665 2.670817,-2.712543 4.0625,-4 l 1.46875,-3.25 2.25,0 C 61.187192,24.803137 85.160316,17.261876 106.28125,16.125 c 8.82546,-0.475048 17.15711,0.179452 24.40625,1.8125 A 1.0001,1.0001 0 1 1 130.25,19.875 C 106.25319,14.469124 69.49934,20.362397 43.3125,42.3125 l -0.4375,3.25 4.8125,0 -0.6875,4.90625 -4.8125,0 -1.59375,11.59375 c -0.128089,0.930996 -0.03552,1.618495 0.28125,2.0625 0.316754,0.444015 0.792236,0.656255 1.40625,0.65625 0.531337,5e-6 1.039223,-0.07552 1.53125,-0.21875 0.503809,-0.143224 1.005753,-0.316401 1.53125,-0.53125 l -0.65625,4.875 c -0.551097,0.315105 -1.21673,0.580729 -2,0.78125 C 41.914044,69.902343 41.073071,70 40.1875,70 l 14.59375,0 c -0.861975,0 -1.633367,-0.131511 -2.34375,-0.375 -0.710397,-0.243489 -1.289608,-0.648437 -1.75,-1.25 -0.458432,-0.615884 -0.789848,-1.45182 -0.96875,-2.46875 -0.165133,-1.031245 -0.150313,-2.296869 0.0625,-3.84375 l 1.59375,-11.59375 -2.5625,0 0.375,-2.78125 3.28125,-2.1875 2.25,-5.0625 3.4375,0 -0.6875,5.125 4.8125,0 -0.6875,4.90625 -4.8125,0 -1.59375,11.59375 c -0.128089,0.930996 -0.03552,1.618495 0.28125,2.0625 0.316754,0.444015 0.792236,0.656255 1.40625,0.65625 0.531337,5e-6 1.039223,-0.07552 1.53125,-0.21875 0.503809,-0.143224 1.037003,-0.316401 1.5625,-0.53125 l -0.6875,4.875 c -0.551097,0.315105 -1.21673,0.580729 -2,0.78125 C 56.507794,69.902343 55.666821,70 54.78125,70 l 11.125,0 -2.125,-24.375 5.875,0 L 70.125,59.5 c 0.03338,0.828983 0.04359,1.692069 0,2.59375 -0.02822,0.887154 -0.104459,1.69363 -0.21875,2.40625 l 0.125,0 c 0.200518,-0.770793 0.451367,-1.579433 0.78125,-2.4375 0.345258,-0.872594 0.708472,-1.733517 1.09375,-2.5625 L 78.25,45.625 l 5.90625,0 L 71.6875,70 82.09375,70 c -0.538609,0 -1.021395,-0.0893 -1.4375,-0.28125 -0.416111,-0.191949 -0.746786,-0.4911 -1,-0.875 -0.252155,-0.389382 -0.429757,-0.881931 -0.5,-1.46875 -0.06469,-0.592299 0.0021,-1.267276 0.15625,-2.0625 0.156312,-0.806183 0.373209,-1.521724 0.65625,-2.125 0.283037,-0.603263 0.59489,-1.09964 0.96875,-1.5 0.379406,-0.405828 0.793233,-0.703323 1.25,-0.90625 0.461246,-0.202909 0.95707,-0.312491 1.46875,-0.3125 0.498203,9e-6 0.917932,0.09479 1.28125,0.28125 0.368855,0.18099 0.665831,0.456031 0.875,0.8125 0.213641,0.356486 0.359144,0.791501 0.40625,1.3125 0.05264,0.515528 0.0047,1.112174 -0.125,1.78125 l -0.25,1.21875 -4.59375,0 c -0.05908,0.350997 -0.05675,0.652321 -0.03125,0.9375 0.03104,0.279701 0.108911,0.521319 0.21875,0.71875 0.115383,0.191952 0.246746,0.333301 0.4375,0.4375 0.195234,0.104203 0.444955,0.156252 0.71875,0.15625 0.228902,2e-6 0.448951,-0.0038 0.65625,-0.03125 0.21284,-0.0329 0.420297,-0.09592 0.625,-0.15625 0.204691,-0.06033 0.388218,-0.131 0.59375,-0.21875 0.206582,-0.09323 0.435361,-0.191844 0.65625,-0.3125 l -0.375,1.9375 c -0.201872,0.11517 -0.393783,0.230236 -0.59375,0.3125 -0.194428,0.07678 -0.412396,0.132657 -0.625,0.1875 -0.212616,0.05484 -0.449857,0.103063 -0.6875,0.125 C 82.605033,69.996171 82.372025,70 82.09375,70 l 5.03125,0 c -0.178924,0 -0.345259,-0.01414 -0.5,-0.0625 -0.154745,-0.04352 -0.290194,-0.1172 -0.40625,-0.21875 -0.116058,-0.10155 -0.213551,-0.251507 -0.28125,-0.40625 -0.06287,-0.154743 -0.09375,-0.313642 -0.09375,-0.53125 -10e-7,-0.227278 0.03088,-0.439005 0.09375,-0.59375 0.0677,-0.159577 0.165192,-0.278284 0.28125,-0.375 0.116056,-0.09671 0.251505,-0.175226 0.40625,-0.21875 0.154741,-0.04352 0.321076,-0.0625 0.5,-0.0625 0.169248,2e-6 0.31884,0.01898 0.46875,0.0625 0.15474,0.04352 0.29019,0.122038 0.40625,0.21875 0.116054,0.09672 0.213547,0.215423 0.28125,0.375 0.0677,0.154745 0.09375,0.366472 0.09375,0.59375 -3e-6,0.217608 -0.02605,0.376507 -0.09375,0.53125 C 88.213547,69.467243 88.116054,69.6172 88,69.71875 87.88394,69.8203 87.74849,69.893978 87.59375,69.9375 87.44384,69.985857 87.294248,70 87.125,70 l 3.4375,0 -0.21875,-9.21875 2.28125,0 -0.1875,5.25 c -0.0083,0.31295 -0.0227,0.659606 -0.0625,1 -0.03351,0.33491 -0.09408,0.637229 -0.15625,0.90625 l 0.0625,0 c 0.09683,-0.290983 0.226162,-0.613571 0.375,-0.9375 0.155126,-0.329414 0.299339,-0.6558 0.46875,-0.96875 l 2.8125,-5.25 2.25,0 L 92.78125,70 l 3.5,0 C 96.102326,70 95.904741,69.985857 95.75,69.9375 95.595255,69.893978 95.459806,69.8203 95.34375,69.71875 95.227692,69.6172 95.161449,69.467243 95.09375,69.3125 95.030885,69.157757 94.999999,68.998858 95,68.78125 c -10e-7,-0.227278 0.03088,-0.439005 0.09375,-0.59375 0.0677,-0.159577 0.133942,-0.278284 0.25,-0.375 0.116056,-0.09671 0.251505,-0.175226 0.40625,-0.21875 0.154741,-0.04352 0.352326,-0.0625 0.53125,-0.0625 0.169248,2e-6 0.31884,0.01898 0.46875,0.0625 0.15474,0.04352 0.29019,0.122038 0.40625,0.21875 0.116054,0.09672 0.213547,0.215423 0.28125,0.375 0.0677,0.154745 0.09375,0.366472 0.09375,0.59375 -3e-6,0.217608 -0.02605,0.376507 -0.09375,0.53125 -0.0677,0.154743 -0.165196,0.3047 -0.28125,0.40625 C 97.04019,69.8203 96.90474,69.893978 96.75,69.9375 96.60009,69.985857 96.450498,70 96.28125,70 L 103,70 l 0,-20 7,0 0,20 8,0 0,-20 7,0 0,20 8,0 0,-20 7,0 0,20 8,0 0,-20 7,0 0,20 8,0 0,-20 7,0 0,20 8,0 0,-20 7,0 0,20 15,0 L 200,0 0,0 Z m 144,19.875 c 3.52238,0 6.375,2.852628 6.375,6.375 0,3.52238 -2.85262,6.40625 -6.375,6.40625 -3.52238,0 -6.375,-2.88387 -6.375,-6.40625 0,-3.522372 2.85262,-6.375 6.375,-6.375 z m -41,16.625 82,0 0,8 -82,0 0,-8 z m -81.875,3.53125 c -0.257679,0.0041 -0.508762,0.03822 -0.78125,0.125 -0.597726,0.190386 -1.066918,0.481345 -1.40625,0.875 -0.331968,0.376317 -0.559233,0.850445 -0.65625,1.4375 -0.09702,0.587094 -0.06806,1.309785 0.0625,2.125 0.1262,0.801602 0.32245,1.718989 0.625,2.75 L 19.1875,48 c 0.352061,1.10546 0.714436,2.080064 1.09375,2.90625 0.391023,0.822476 0.805255,1.495285 1.25,2 0.440386,0.491086 0.919949,0.802888 1.4375,0.96875 0.529254,0.162145 1.11711,0.139064 1.75,-0.0625 1.066509,-0.33966 1.662796,-1.169536 1.78125,-2.5 0.125804,-1.347822 -0.15784,-3.1544 -0.875,-5.40625 -0.71718,-2.251818 -1.514637,-3.853888 -2.375,-4.8125 -0.639755,-0.731962 -1.351963,-1.07476 -2.125,-1.0625 z M 83.3125,62.25 c -0.363563,8e-6 -0.697021,0.156154 -1,0.46875 -0.298499,0.312611 -0.521868,0.799675 -0.6875,1.46875 l 2.625,0 c 0.04974,-0.279692 0.07063,-0.54542 0.0625,-0.78125 C 84.3044,63.170433 84.26225,62.982519 84.1875,62.8125 84.1138,62.63701 84.017435,62.504974 83.875,62.40625 83.732553,62.307541 83.527936,62.250008 83.3125,62.25 Z"
           id="rect2984"
           inkscape:connector-curvature="0" />
        <rect
           style="fill:#e20a17;fill-opacity:1;stroke:none"
           id="rect2986"
           width="7"
           height="20"
           x="178"
           y="69.999573" />
        <rect
           y="69.999573"
           x="163"
           height="20"
           width="7"
           id="rect3782"
           style="fill:#e20a17;fill-opacity:1;stroke:none" />
        <rect
           style="fill:#e20a17;fill-opacity:1;stroke:none"
           id="rect3788"
           width="7"
           height="20"
           x="148"
           y="69.999573" />
        <rect
           y="69.999573"
           x="133"
           height="20"
           width="7"
           id="rect3794"
           style="fill:#e20a17;fill-opacity:1;stroke:none" />
        <rect
           style="fill:#e20a17;fill-opacity:1;stroke:none"
           id="rect3800"
           width="7"
           height="20"
           x="118"
           y="69.999573" />
        <rect
           y="69.999573"
           x="103"
           height="20"
           width="7"
           id="rect3806"
           style="fill:#e20a17;fill-opacity:1;stroke:none" />
      </g>
      <rect
         transform="matrix(0.96592583,-0.25881905,0.25881905,0.96592583,0,0)"
         ry="4.0196171"
         y="47.363121"
         x="82.083061"
         height="25.175499"
         width="17.826416"
         id="rect2990"
         style="fill:#e20a17;fill-opacity:1;fill-rule:evenodd;stroke:#ffffff;stroke-width:1.02135241px;stroke-linecap:butt;stroke-linejoin:miter;stroke-opacity:1" />
      <rect
         transform="matrix(0.8660254,0.5,-0.5,0.8660254,0,0)"
         style="fill:#ffffff;fill-opacity:1;fill-rule:evenodd;stroke:#e20a17;stroke-width:1.02135241px;stroke-linecap:butt;stroke-linejoin:miter;stroke-opacity:1"
         id="rect3767"
         width="17.826416"
         height="25.175499"
         x="109.0247"
         y="-39.074451"
         ry="4.0196171" />
    </g>
    <path
       inkscape:connector-curvature="0"
       id="path3349"
       style="font-style:normal;font-variant:normal;font-weight:normal;font-stretch:normal;font-size:medium;line-height:125%;font-family:FontAwesome;-inkscape-font-specification:'FontAwesome, Normal';text-align:start;letter-spacing:0px;word-spacing:0px;writing-mode:lr-tb;text-anchor:start;fill:#e20a17;fill-opacity:1;stroke:none;stroke-width:1px;stroke-linecap:butt;stroke-linejoin:miter;stroke-opacity:1"
       d="m 212.0464,53.799518 -12.8125,4.040179 c -0.35715,0.111607 -0.71429,0.15625 -1.07143,0.15625 -0.35714,0 -0.71429,-0.04464 -1.07143,-0.15625 l -12.8125,-4.040179 -0.40179,7.053572 c -0.17857,3.147321 6.40625,5.714286 14.28572,5.714286 7.87946,0 14.46428,-2.566965 14.28571,-5.714286 l -0.40178,-7.053572 z m 11.83035,-7.232142 c 0,-0.3125 -0.20089,-0.580358 -0.49107,-0.691965 l -25,-7.857143 c -0.0893,-0.02232 -0.15625,-0.02232 -0.22321,-0.02232 -0.067,0 -0.13393,0 -0.22322,0.02232 l -25,7.857143 c -0.29017,0.111607 -0.49107,0.379465 -0.49107,0.691965 0,0.3125 0.2009,0.580357 0.49107,0.691964 l 7.43304,2.321428 c -1.38393,1.941965 -2.05357,4.754465 -2.1875,7.366072 -0.84821,0.491071 -1.45089,1.40625 -1.45089,2.477678 0,1.004465 0.51339,1.875 1.29464,2.388393 l -1.29464,9.665179 c -0.0223,0.200893 0.0446,0.401786 0.17857,0.558036 0.13393,0.15625 0.33482,0.245535 0.53571,0.245535 l 4.28572,0 c 0.20089,0 0.40178,-0.08928 0.53571,-0.245535 0.13393,-0.15625 0.20089,-0.357143 0.17857,-0.558036 l -1.29464,-9.665179 c 0.78125,-0.513393 1.29464,-1.383928 1.29464,-2.388393 0,-1.049107 -0.55803,-1.941964 -1.40625,-2.433035 0.17857,-3.013393 1.07143,-5.46875 2.34375,-6.473215 l 14.55357,4.598215 c 0.0893,0.02232 0.15625,0.02232 0.22322,0.02232 0.067,0 0.13393,0 0.22321,-0.02232 l 25,-7.857143 c 0.29018,-0.111607 0.49107,-0.379464 0.49107,-0.691964 z" />
    <g
       id="g4162"
       transform="translate(267.89169,-0.00224976)">
      <g
         id="g4164"
         transform="matrix(0.6,0,0,0.6,0,35.999828)">
        <path
           inkscape:connector-curvature="0"
           id="path4166"
           d="m 0,0 0,70 40.1875,0 c -0.861975,0 -1.633367,-0.131511 -2.34375,-0.375 -0.710397,-0.243489 -1.320858,-0.648437 -1.78125,-1.25 -0.458432,-0.615884 -0.758598,-1.45182 -0.9375,-2.46875 -0.165133,-1.031245 -0.150313,-2.296869 0.0625,-3.84375 l 1.59375,-11.59375 -1.96875,0 c -0.93741,1.025536 -1.856345,2.077413 -2.75,3.15625 -0.0094,0.04051 -0.02142,0.08494 -0.03125,0.125 -0.292164,1.19037 -0.774026,2.191318 -1.46875,2.96875 -5.222203,4.285304 -9.744091,2.670207 -11,2.125 C 18.530068,58.395556 18.067972,58.463854 16.40625,56.5 L 8.375,29 l 4.34375,-1.3125 2.375,7.40625 c 0.143434,0.450394 0.260176,0.960309 0.40625,1.5 0.141726,0.526095 0.286255,1.010943 0.40625,1.46875 l 0.40625,1.625 0.21875,-0.0625 c 0.09399,-0.55602 0.220203,-1.083521 0.40625,-1.59375 0.186044,-0.510181 0.43542,-1.006589 0.75,-1.4375 0.321947,-0.448241 0.716601,-0.842089 1.1875,-1.1875 0.470892,-0.345358 1.042894,-0.60718 1.6875,-0.8125 1.007914,-0.320979 2.007052,-0.364913 3,-0.125 0.992931,0.239968 1.928726,0.756624 2.84375,1.5625 0.915002,0.805928 1.796155,1.911859 2.59375,3.28125 0.809286,1.365705 1.507782,2.999577 2.125,4.9375 0.625877,1.965255 1.022345,3.747941 1.15625,5.34375 0.01813,0.202624 0.02094,0.397434 0.03125,0.59375 0.746773,-0.845443 1.508076,-1.688654 2.28125,-2.5 1.320472,-1.385665 2.670817,-2.712543 4.0625,-4 l 1.46875,-3.25 2.25,0 C 61.187192,24.803137 85.160316,17.261876 106.28125,16.125 c 8.82546,-0.475048 17.15711,0.179452 24.40625,1.8125 A 1.0001,1.0001 0 1 1 130.25,19.875 C 106.25319,14.469124 69.49934,20.362397 43.3125,42.3125 l -0.4375,3.25 4.8125,0 -0.6875,4.90625 -4.8125,0 -1.59375,11.59375 c -0.128089,0.930996 -0.03552,1.618495 0.28125,2.0625 0.316754,0.444015 0.792236,0.656255 1.40625,0.65625 0.531337,5e-6 1.039223,-0.07552 1.53125,-0.21875 0.503809,-0.143224 1.005753,-0.316401 1.53125,-0.53125 l -0.65625,4.875 c -0.551097,0.315105 -1.21673,0.580729 -2,0.78125 C 41.914044,69.902343 41.073071,70 40.1875,70 l 14.59375,0 c -0.861975,0 -1.633367,-0.131511 -2.34375,-0.375 -0.710397,-0.243489 -1.289608,-0.648437 -1.75,-1.25 -0.458432,-0.615884 -0.789848,-1.45182 -0.96875,-2.46875 -0.165133,-1.031245 -0.150313,-2.296869 0.0625,-3.84375 l 1.59375,-11.59375 -2.5625,0 0.375,-2.78125 3.28125,-2.1875 2.25,-5.0625 3.4375,0 -0.6875,5.125 4.8125,0 -0.6875,4.90625 -4.8125,0 -1.59375,11.59375 c -0.128089,0.930996 -0.03552,1.618495 0.28125,2.0625 0.316754,0.444015 0.792236,0.656255 1.40625,0.65625 0.531337,5e-6 1.039223,-0.07552 1.53125,-0.21875 0.503809,-0.143224 1.037003,-0.316401 1.5625,-0.53125 l -0.6875,4.875 c -0.551097,0.315105 -1.21673,0.580729 -2,0.78125 C 56.507794,69.902343 55.666821,70 54.78125,70 l 11.125,0 -2.125,-24.375 5.875,0 L 70.125,59.5 c 0.03338,0.828983 0.04359,1.692069 0,2.59375 -0.02822,0.887154 -0.104459,1.69363 -0.21875,2.40625 l 0.125,0 c 0.200518,-0.770793 0.451367,-1.579433 0.78125,-2.4375 0.345258,-0.872594 0.708472,-1.733517 1.09375,-2.5625 L 78.25,45.625 l 5.90625,0 L 71.6875,70 82.09375,70 c -0.538609,0 -1.021395,-0.0893 -1.4375,-0.28125 -0.416111,-0.191949 -0.746786,-0.4911 -1,-0.875 -0.252155,-0.389382 -0.429757,-0.881931 -0.5,-1.46875 -0.06469,-0.592299 0.0021,-1.267276 0.15625,-2.0625 0.156312,-0.806183 0.373209,-1.521724 0.65625,-2.125 0.283037,-0.603263 0.59489,-1.09964 0.96875,-1.5 0.379406,-0.405828 0.793233,-0.703323 1.25,-0.90625 0.461246,-0.202909 0.95707,-0.312491 1.46875,-0.3125 0.498203,9e-6 0.917932,0.09479 1.28125,0.28125 0.368855,0.18099 0.665831,0.456031 0.875,0.8125 0.213641,0.356486 0.359144,0.791501 0.40625,1.3125 0.05264,0.515528 0.0047,1.112174 -0.125,1.78125 l -0.25,1.21875 -4.59375,0 c -0.05908,0.350997 -0.05675,0.652321 -0.03125,0.9375 0.03104,0.279701 0.108911,0.521319 0.21875,0.71875 0.115383,0.191952 0.246746,0.333301 0.4375,0.4375 0.195234,0.104203 0.444955,0.156252 0.71875,0.15625 0.228902,2e-6 0.448951,-0.0038 0.65625,-0.03125 0.21284,-0.0329 0.420297,-0.09592 0.625,-0.15625 0.204691,-0.06033 0.388218,-0.131 0.59375,-0.21875 0.206582,-0.09323 0.435361,-0.191844 0.65625,-0.3125 l -0.375,1.9375 c -0.201872,0.11517 -0.393783,0.230236 -0.59375,0.3125 -0.194428,0.07678 -0.412396,0.132657 -0.625,0.1875 -0.212616,0.05484 -0.449857,0.103063 -0.6875,0.125 C 82.605033,69.996171 82.372025,70 82.09375,70 l 5.03125,0 c -0.178924,0 -0.345259,-0.01414 -0.5,-0.0625 -0.154745,-0.04352 -0.290194,-0.1172 -0.40625,-0.21875 -0.116058,-0.10155 -0.213551,-0.251507 -0.28125,-0.40625 -0.06287,-0.154743 -0.09375,-0.313642 -0.09375,-0.53125 -10e-7,-0.227278 0.03088,-0.439005 0.09375,-0.59375 0.0677,-0.159577 0.165192,-0.278284 0.28125,-0.375 0.116056,-0.09671 0.251505,-0.175226 0.40625,-0.21875 0.154741,-0.04352 0.321076,-0.0625 0.5,-0.0625 0.169248,2e-6 0.31884,0.01898 0.46875,0.0625 0.15474,0.04352 0.29019,0.122038 0.40625,0.21875 0.116054,0.09672 0.213547,0.215423 0.28125,0.375 0.0677,0.154745 0.09375,0.366472 0.09375,0.59375 -3e-6,0.217608 -0.02605,0.376507 -0.09375,0.53125 C 88.213547,69.467243 88.116054,69.6172 88,69.71875 87.88394,69.8203 87.74849,69.893978 87.59375,69.9375 87.44384,69.985857 87.294248,70 87.125,70 l 3.4375,0 -0.21875,-9.21875 2.28125,0 -0.1875,5.25 c -0.0083,0.31295 -0.0227,0.659606 -0.0625,1 -0.03351,0.33491 -0.09408,0.637229 -0.15625,0.90625 l 0.0625,0 c 0.09683,-0.290983 0.226162,-0.613571 0.375,-0.9375 0.155126,-0.329414 0.299339,-0.6558 0.46875,-0.96875 l 2.8125,-5.25 2.25,0 L 92.78125,70 l 3.5,0 C 96.102326,70 95.904741,69.985857 95.75,69.9375 95.595255,69.893978 95.459806,69.8203 95.34375,69.71875 95.227692,69.6172 95.161449,69.467243 95.09375,69.3125 95.030885,69.157757 94.999999,68.998858 95,68.78125 c -10e-7,-0.227278 0.03088,-0.439005 0.09375,-0.59375 0.0677,-0.159577 0.133942,-0.278284 0.25,-0.375 0.116056,-0.09671 0.251505,-0.175226 0.40625,-0.21875 0.154741,-0.04352 0.352326,-0.0625 0.53125,-0.0625 0.169248,2e-6 0.31884,0.01898 0.46875,0.0625 0.15474,0.04352 0.29019,0.122038 0.40625,0.21875 0.116054,0.09672 0.213547,0.215423 0.28125,0.375 0.0677,0.154745 0.09375,0.366472 0.09375,0.59375 -3e-6,0.217608 -0.02605,0.376507 -0.09375,0.53125 -0.0677,0.154743 -0.165196,0.3047 -0.28125,0.40625 C 97.04019,69.8203 96.90474,69.893978 96.75,69.9375 96.60009,69.985857 96.450498,70 96.28125,70 L 103,70 l 0,-20 7,0 0,20 8,0 0,-20 7,0 0,20 8,0 0,-20 7,0 0,20 8,0 0,-20 7,0 0,20 8,0 0,-20 7,0 0,20 8,0 0,-20 7,0 0,20 15,0 L 200,0 0,0 Z m 144,19.875 c 3.52238,0 6.375,2.852628 6.375,6.375 0,3.52238 -2.85262,6.40625 -6.375,6.40625 -3.52238,0 -6.375,-2.88387 -6.375,-6.40625 0,-3.522372 2.85262,-6.375 6.375,-6.375 z m -41,16.625 82,0 0,8 -82,0 0,-8 z m -81.875,3.53125 c -0.257679,0.0041 -0.508762,0.03822 -0.78125,0.125 -0.597726,0.190386 -1.066918,0.481345 -1.40625,0.875 -0.331968,0.376317 -0.559233,0.850445 -0.65625,1.4375 -0.09702,0.587094 -0.06806,1.309785 0.0625,2.125 0.1262,0.801602 0.32245,1.718989 0.625,2.75 L 19.1875,48 c 0.352061,1.10546 0.714436,2.080064 1.09375,2.90625 0.391023,0.822476 0.805255,1.495285 1.25,2 0.440386,0.491086 0.919949,0.802888 1.4375,0.96875 0.529254,0.162145 1.11711,0.139064 1.75,-0.0625 1.066509,-0.33966 1.662796,-1.169536 1.78125,-2.5 0.125804,-1.347822 -0.15784,-3.1544 -0.875,-5.40625 -0.71718,-2.251818 -1.514637,-3.853888 -2.375,-4.8125 -0.639755,-0.731962 -1.351963,-1.07476 -2.125,-1.0625 z M 83.3125,62.25 c -0.363563,8e-6 -0.697021,0.156154 -1,0.46875 -0.298499,0.312611 -0.521868,0.799675 -0.6875,1.46875 l 2.625,0 c 0.04974,-0.279692 0.07063,-0.54542 0.0625,-0.78125 C 84.3044,63.170433 84.26225,62.982519 84.1875,62.8125 84.1138,62.63701 84.017435,62.504974 83.875,62.40625 83.732553,62.307541 83.527936,62.250008 83.3125,62.25 Z"
           style="fill:#e20a17;fill-opacity:1;stroke:none" />
        <rect
           y="69.999573"
           x="178"
           height="20"
           width="7"
           id="rect4168"
           style="fill:#e20a17;fill-opacity:1;stroke:none" />
        <rect
           style="fill:#e20a17;fill-opacity:1;stroke:none"
           id="rect4170"
           width="7"
           height="20"
           x="163"
           y="69.999573" />
        <rect
           y="69.999573"
           x="148"
           height="20"
           width="7"
           id="rect4172"
           style="fill:#e20a17;fill-opacity:1;stroke:none" />
        <rect
           style="fill:#e20a17;fill-opacity:1;stroke:none"
           id="rect4174"
           width="7"
           height="20"
           x="133"
           y="69.999573" />
        <rect
           y="69.999573"
           x="118"
           height="20"
           width="7"
           id="rect4176"
           style="fill:#e20a17;fill-opacity:1;stroke:none" />
        <rect
           style="fill:#e20a17;fill-opacity:1;stroke:none"
           id="rect4178"
           width="7"
           height="20"
           x="103"
           y="69.999573" />
      </g>
      <rect
         style="fill:#e20a17;fill-opacity:1;fill-rule:evenodd;stroke:#ffffff;stroke-width:1.02135241px;stroke-linecap:butt;stroke-linejoin:miter;stroke-opacity:1"
         id="rect4180"
         width="17.826416"
         height="25.175499"
         x="82.083061"
         y="47.363121"
         ry="4.0196171"
         transform="matrix(0.96592583,-0.25881905,0.25881905,0.96592583,0,0)" />
      <rect
         ry="4.0196171"
         y="-39.074451"
         x="109.0247"
         height="25.175499"
         width="17.826416"
         id="rect4182"
         style="fill:#ffffff;fill-opacity:1;fill-rule:evenodd;stroke:#e20a17;stroke-width:1.02135241px;stroke-linecap:butt;stroke-linejoin:miter;stroke-opacity:1"
         transform="matrix(0.8660254,0.5,-0.5,0.8660254,0,0)" />
    </g>
    <path
       d="m 479.93809,53.799518 -12.8125,4.040179 c -0.35715,0.111607 -0.71429,0.15625 -1.07143,0.15625 -0.35714,0 -0.71429,-0.04464 -1.07143,-0.15625 l -12.8125,-4.040179 -0.40179,7.053572 c -0.17857,3.147321 6.40625,5.714286 14.28572,5.714286 7.87946,0 14.46428,-2.566965 14.28571,-5.714286 l -0.40178,-7.053572 z m 11.83035,-7.232142 c 0,-0.3125 -0.20089,-0.580358 -0.49107,-0.691965 l -25,-7.857143 c -0.0893,-0.02232 -0.15625,-0.02232 -0.22321,-0.02232 -0.067,0 -0.13393,0 -0.22322,0.02232 l -25,7.857143 c -0.29017,0.111607 -0.49107,0.379465 -0.49107,0.691965 0,0.3125 0.2009,0.580357 0.49107,0.691964 l 7.43304,2.321428 c -1.38393,1.941965 -2.05357,4.754465 -2.1875,7.366072 -0.84821,0.491071 -1.45089,1.40625 -1.45089,2.477678 0,1.004465 0.51339,1.875 1.29464,2.388393 l -1.29464,9.665179 c -0.0223,0.200893 0.0446,0.401786 0.17857,0.558036 0.13393,0.15625 0.33482,0.245535 0.53571,0.245535 l 4.28572,0 c 0.20089,0 0.40178,-0.08928 0.53571,-0.245535 0.13393,-0.15625 0.20089,-0.357143 0.17857,-0.558036 l -1.29464,-9.665179 c 0.78125,-0.513393 1.29464,-1.383928 1.29464,-2.388393 0,-1.049107 -0.55803,-1.941964 -1.40625,-2.433035 0.17857,-3.013393 1.07143,-5.46875 2.34375,-6.473215 l 14.55357,4.598215 c 0.0893,0.02232 0.15625,0.02232 0.22322,0.02232 0.067,0 0.13393,0 0.22321,-0.02232 l 25,-7.857143 c 0.29018,-0.111607 0.49107,-0.379464 0.49107,-0.691964 z"
       style="font-style:normal;font-variant:normal;font-weight:normal;font-stretch:normal;font-size:medium;line-height:125%;font-family:FontAwesome;-inkscape-font-specification:'FontAwesome, Normal';text-align:start;letter-spacing:0px;word-spacing:0px;writing-mode:lr-tb;text-anchor:start;fill:#e20a17;fill-opacity:1;stroke:none;stroke-width:1px;stroke-linecap:butt;stroke-linejoin:miter;stroke-opacity:1"
       id="path4184"
       inkscape:connector-curvature="0" />
    <g
       transform="translate(535.78339,-0.00224976)"
       id="g4186">
      <g
         transform="matrix(0.6,0,0,0.6,0,35.999828)"
         id="g4188">
        <path
           style="fill:#e20a17;fill-opacity:1;stroke:none"
           d="m 0,0 0,70 40.1875,0 c -0.861975,0 -1.633367,-0.131511 -2.34375,-0.375 -0.710397,-0.243489 -1.320858,-0.648437 -1.78125,-1.25 -0.458432,-0.615884 -0.758598,-1.45182 -0.9375,-2.46875 -0.165133,-1.031245 -0.150313,-2.296869 0.0625,-3.84375 l 1.59375,-11.59375 -1.96875,0 c -0.93741,1.025536 -1.856345,2.077413 -2.75,3.15625 -0.0094,0.04051 -0.02142,0.08494 -0.03125,0.125 -0.292164,1.19037 -0.774026,2.191318 -1.46875,2.96875 -5.222203,4.285304 -9.744091,2.670207 -11,2.125 C 18.530068,58.395556 18.067972,58.463854 16.40625,56.5 L 8.375,29 l 4.34375,-1.3125 2.375,7.40625 c 0.143434,0.450394 0.260176,0.960309 0.40625,1.5 0.141726,0.526095 0.286255,1.010943 0.40625,1.46875 l 0.40625,1.625 0.21875,-0.0625 c 0.09399,-0.55602 0.220203,-1.083521 0.40625,-1.59375 0.186044,-0.510181 0.43542,-1.006589 0.75,-1.4375 0.321947,-0.448241 0.716601,-0.842089 1.1875,-1.1875 0.470892,-0.345358 1.042894,-0.60718 1.6875,-0.8125 1.007914,-0.320979 2.007052,-0.364913 3,-0.125 0.992931,0.239968 1.928726,0.756624 2.84375,1.5625 0.915002,0.805928 1.796155,1.911859 2.59375,3.28125 0.809286,1.365705 1.507782,2.999577 2.125,4.9375 0.625877,1.965255 1.022345,3.747941 1.15625,5.34375 0.01813,0.202624 0.02094,0.397434 0.03125,0.59375 0.746773,-0.845443 1.508076,-1.688654 2.28125,-2.5 1.320472,-1.385665 2.670817,-2.712543 4.0625,-4 l 1.46875,-3.25 2.25,0 C 61.187192,24.803137 85.160316,17.261876 106.28125,16.125 c 8.82546,-0.475048 17.15711,0.179452 24.40625,1.8125 A 1.0001,1.0001 0 1 1 130.25,19.875 C 106.25319,14.469124 69.49934,20.362397 43.3125,42.3125 l -0.4375,3.25 4.8125,0 -0.6875,4.90625 -4.8125,0 -1.59375,11.59375 c -0.128089,0.930996 -0.03552,1.618495 0.28125,2.0625 0.316754,0.444015 0.792236,0.656255 1.40625,0.65625 0.531337,5e-6 1.039223,-0.07552 1.53125,-0.21875 0.503809,-0.143224 1.005753,-0.316401 1.53125,-0.53125 l -0.65625,4.875 c -0.551097,0.315105 -1.21673,0.580729 -2,0.78125 C 41.914044,69.902343 41.073071,70 40.1875,70 l 14.59375,0 c -0.861975,0 -1.633367,-0.131511 -2.34375,-0.375 -0.710397,-0.243489 -1.289608,-0.648437 -1.75,-1.25 -0.458432,-0.615884 -0.789848,-1.45182 -0.96875,-2.46875 -0.165133,-1.031245 -0.150313,-2.296869 0.0625,-3.84375 l 1.59375,-11.59375 -2.5625,0 0.375,-2.78125 3.28125,-2.1875 2.25,-5.0625 3.4375,0 -0.6875,5.125 4.8125,0 -0.6875,4.90625 -4.8125,0 -1.59375,11.59375 c -0.128089,0.930996 -0.03552,1.618495 0.28125,2.0625 0.316754,0.444015 0.792236,0.656255 1.40625,0.65625 0.531337,5e-6 1.039223,-0.07552 1.53125,-0.21875 0.503809,-0.143224 1.037003,-0.316401 1.5625,-0.53125 l -0.6875,4.875 c -0.551097,0.315105 -1.21673,0.580729 -2,0.78125 C 56.507794,69.902343 55.666821,70 54.78125,70 l 11.125,0 -2.125,-24.375 5.875,0 L 70.125,59.5 c 0.03338,0.828983 0.04359,1.692069 0,2.59375 -0.02822,0.887154 -0.104459,1.69363 -0.21875,2.40625 l 0.125,0 c 0.200518,-0.770793 0.451367,-1.579433 0.78125,-2.4375 0.345258,-0.872594 0.708472,-1.733517 1.09375,-2.5625 L 78.25,45.625 l 5.90625,0 L 71.6875,70 82.09375,70 c -0.538609,0 -1.021395,-0.0893 -1.4375,-0.28125 -0.416111,-0.191949 -0.746786,-0.4911 -1,-0.875 -0.252155,-0.389382 -0.429757,-0.881931 -0.5,-1.46875 -0.06469,-0.592299 0.0021,-1.267276 0.15625,-2.0625 0.156312,-0.806183 0.373209,-1.521724 0.65625,-2.125 0.283037,-0.603263 0.59489,-1.09964 0.96875,-1.5 0.379406,-0.405828 0.793233,-0.703323 1.25,-0.90625 0.461246,-0.202909 0.95707,-0.312491 1.46875,-0.3125 0.498203,9e-6 0.917932,0.09479 1.28125,0.28125 0.368855,0.18099 0.665831,0.456031 0.875,0.8125 0.213641,0.356486 0.359144,0.791501 0.40625,1.3125 0.05264,0.515528 0.0047,1.112174 -0.125,1.78125 l -0.25,1.21875 -4.59375,0 c -0.05908,0.350997 -0.05675,0.652321 -0.03125,0.9375 0.03104,0.279701 0.108911,0.521319 0.21875,0.71875 0.115383,0.191952 0.246746,0.333301 0.4375,0.4375 0.195234,0.104203 0.444955,0.156252 0.71875,0.15625 0.228902,2e-6 0.448951,-0.0038 0.65625,-0.03125 0.21284,-0.0329 0.420297,-0.09592 0.625,-0.15625 0.204691,-0.06033 0.388218,-0.131 0.59375,-0.21875 0.206582,-0.09323 0.435361,-0.191844 0.65625,-0.3125 l -0.375,1.9375 c -0.201872,0.11517 -0.393783,0.230236 -0.59375,0.3125 -0.194428,0.07678 -0.412396,0.132657 -0.625,0.1875 -0.212616,0.05484 -0.449857,0.103063 -0.6875,0.125 C 82.605033,69.996171 82.372025,70 82.09375,70 l 5.03125,0 c -0.178924,0 -0.345259,-0.01414 -0.5,-0.0625 -0.154745,-0.04352 -0.290194,-0.1172 -0.40625,-0.21875 -0.116058,-0.10155 -0.213551,-0.251507 -0.28125,-0.40625 -0.06287,-0.154743 -0.09375,-0.313642 -0.09375,-0.53125 -10e-7,-0.227278 0.03088,-0.439005 0.09375,-0.59375 0.0677,-0.159577 0.165192,-0.278284 0.28125,-0.375 0.116056,-0.09671 0.251505,-0.175226 0.40625,-0.21875 0.154741,-0.04352 0.321076,-0.0625 0.5,-0.0625 0.169248,2e-6 0.31884,0.01898 0.46875,0.0625 0.15474,0.04352 0.29019,0.122038 0.40625,0.21875 0.116054,0.09672 0.213547,0.215423 0.28125,0.375 0.0677,0.154745 0.09375,0.366472 0.09375,0.59375 -3e-6,0.217608 -0.02605,0.376507 -0.09375,0.53125 C 88.213547,69.467243 88.116054,69.6172 88,69.71875 87.88394,69.8203 87.74849,69.893978 87.59375,69.9375 87.44384,69.985857 87.294248,70 87.125,70 l 3.4375,0 -0.21875,-9.21875 2.28125,0 -0.1875,5.25 c -0.0083,0.31295 -0.0227,0.659606 -0.0625,1 -0.03351,0.33491 -0.09408,0.637229 -0.15625,0.90625 l 0.0625,0 c 0.09683,-0.290983 0.226162,-0.613571 0.375,-0.9375 0.155126,-0.329414 0.299339,-0.6558 0.46875,-0.96875 l 2.8125,-5.25 2.25,0 L 92.78125,70 l 3.5,0 C 96.102326,70 95.904741,69.985857 95.75,69.9375 95.595255,69.893978 95.459806,69.8203 95.34375,69.71875 95.227692,69.6172 95.161449,69.467243 95.09375,69.3125 95.030885,69.157757 94.999999,68.998858 95,68.78125 c -10e-7,-0.227278 0.03088,-0.439005 0.09375,-0.59375 0.0677,-0.159577 0.133942,-0.278284 0.25,-0.375 0.116056,-0.09671 0.251505,-0.175226 0.40625,-0.21875 0.154741,-0.04352 0.352326,-0.0625 0.53125,-0.0625 0.169248,2e-6 0.31884,0.01898 0.46875,0.0625 0.15474,0.04352 0.29019,0.122038 0.40625,0.21875 0.116054,0.09672 0.213547,0.215423 0.28125,0.375 0.0677,0.154745 0.09375,0.366472 0.09375,0.59375 -3e-6,0.217608 -0.02605,0.376507 -0.09375,0.53125 -0.0677,0.154743 -0.165196,0.3047 -0.28125,0.40625 C 97.04019,69.8203 96.90474,69.893978 96.75,69.9375 96.60009,69.985857 96.450498,70 96.28125,70 L 103,70 l 0,-20 7,0 0,20 8,0 0,-20 7,0 0,20 8,0 0,-20 7,0 0,20 8,0 0,-20 7,0 0,20 8,0 0,-20 7,0 0,20 8,0 0,-20 7,0 0,20 15,0 L 200,0 0,0 Z m 144,19.875 c 3.52238,0 6.375,2.852628 6.375,6.375 0,3.52238 -2.85262,6.40625 -6.375,6.40625 -3.52238,0 -6.375,-2.88387 -6.375,-6.40625 0,-3.522372 2.85262,-6.375 6.375,-6.375 z m -41,16.625 82,0 0,8 -82,0 0,-8 z m -81.875,3.53125 c -0.257679,0.0041 -0.508762,0.03822 -0.78125,0.125 -0.597726,0.190386 -1.066918,0.481345 -1.40625,0.875 -0.331968,0.376317 -0.559233,0.850445 -0.65625,1.4375 -0.09702,0.587094 -0.06806,1.309785 0.0625,2.125 0.1262,0.801602 0.32245,1.718989 0.625,2.75 L 19.1875,48 c 0.352061,1.10546 0.714436,2.080064 1.09375,2.90625 0.391023,0.822476 0.805255,1.495285 1.25,2 0.440386,0.491086 0.919949,0.802888 1.4375,0.96875 0.529254,0.162145 1.11711,0.139064 1.75,-0.0625 1.066509,-0.33966 1.662796,-1.169536 1.78125,-2.5 0.125804,-1.347822 -0.15784,-3.1544 -0.875,-5.40625 -0.71718,-2.251818 -1.514637,-3.853888 -2.375,-4.8125 -0.639755,-0.731962 -1.351963,-1.07476 -2.125,-1.0625 z M 83.3125,62.25 c -0.363563,8e-6 -0.697021,0.156154 -1,0.46875 -0.298499,0.312611 -0.521868,0.799675 -0.6875,1.46875 l 2.625,0 c 0.04974,-0.279692 0.07063,-0.54542 0.0625,-0.78125 C 84.3044,63.170433 84.26225,62.982519 84.1875,62.8125 84.1138,62.63701 84.017435,62.504974 83.875,62.40625 83.732553,62.307541 83.527936,62.250008 83.3125,62.25 Z"
           id="path4190"
           inkscape:connector-curvature="0" />
        <rect
           style="fill:#e20a17;fill-opacity:1;stroke:none"
           id="rect4192"
           width="7"
           height="20"
           x="178"
           y="69.999573" />
        <rect
           y="69.999573"
           x="163"
           height="20"
           width="7"
           id="rect4194"
           style="fill:#e20a17;fill-opacity:1;stroke:none" />
        <rect
           style="fill:#e20a17;fill-opacity:1;stroke:none"
           id="rect4196"
           width="7"
           height="20"
           x="148"
           y="69.999573" />
        <rect
           y="69.999573"
           x="133"
           height="20"
           width="7"
           id="rect4198"
           style="fill:#e20a17;fill-opacity:1;stroke:none" />
        <rect
           style="fill:#e20a17;fill-opacity:1;stroke:none"
           id="rect4200"
           width="7"
           height="20"
           x="118"
           y="69.999573" />
        <rect
           y="69.999573"
           x="103"
           height="20"
           width="7"
           id="rect4202"
           style="fill:#e20a17;fill-opacity:1;stroke:none" />
      </g>
      <rect
         transform="matrix(0.96592583,-0.25881905,0.25881905,0.96592583,0,0)"
         ry="4.0196171"
         y="47.363121"
         x="82.083061"
         height="25.175499"
         width="17.826416"
         id="rect4204"
         style="fill:#e20a17;fill-opacity:1;fill-rule:evenodd;stroke:#ffffff;stroke-width:1.02135241px;stroke-linecap:butt;stroke-linejoin:miter;stroke-opacity:1" />
      <rect
         transform="matrix(0.8660254,0.5,-0.5,0.8660254,0,0)"
         style="fill:#ffffff;fill-opacity:1;fill-rule:evenodd;stroke:#e20a17;stroke-width:1.02135241px;stroke-linecap:butt;stroke-linejoin:miter;stroke-opacity:1"
         id="rect4206"
         width="17.826416"
         height="25.175499"
         x="109.0247"
         y="-39.074451"
         ry="4.0196171" />
    </g>
    <path
       inkscape:connector-curvature="0"
       id="path4208"
       style="font-style:normal;font-variant:normal;font-weight:normal;font-stretch:normal;font-size:medium;line-height:125%;font-family:FontAwesome;-inkscape-font-specification:'FontAwesome, Normal';text-align:start;letter-spacing:0px;word-spacing:0px;writing-mode:lr-tb;text-anchor:start;fill:#e20a17;fill-opacity:1;stroke:none;stroke-width:1px;stroke-linecap:butt;stroke-linejoin:miter;stroke-opacity:1"
       d="m 747.82979,53.799518 -12.8125,4.040179 c -0.35715,0.111607 -0.71429,0.15625 -1.07143,0.15625 -0.35714,0 -0.71429,-0.04464 -1.07143,-0.15625 l -12.8125,-4.040179 -0.40179,7.053572 c -0.17857,3.147321 6.40625,5.714286 14.28572,5.714286 7.87946,0 14.46428,-2.566965 14.28571,-5.714286 l -0.40178,-7.053572 z m 11.83035,-7.232142 c 0,-0.3125 -0.20089,-0.580358 -0.49107,-0.691965 l -25,-7.857143 c -0.0893,-0.02232 -0.15625,-0.02232 -0.22321,-0.02232 -0.067,0 -0.13393,0 -0.22322,0.02232 l -25,7.857143 c -0.29017,0.111607 -0.49107,0.379465 -0.49107,0.691965 0,0.3125 0.2009,0.580357 0.49107,0.691964 l 7.43304,2.321428 c -1.38393,1.941965 -2.05357,4.754465 -2.1875,7.366072 -0.84821,0.491071 -1.45089,1.40625 -1.45089,2.477678 0,1.004465 0.51339,1.875 1.29464,2.388393 l -1.29464,9.665179 c -0.0223,0.200893 0.0446,0.401786 0.17857,0.558036 0.13393,0.15625 0.33482,0.245535 0.53571,0.245535 l 4.28572,0 c 0.20089,0 0.40178,-0.08928 0.53571,-0.245535 0.13393,-0.15625 0.20089,-0.357143 0.17857,-0.558036 l -1.29464,-9.665179 c 0.78125,-0.513393 1.29464,-1.383928 1.29464,-2.388393 0,-1.049107 -0.55803,-1.941964 -1.40625,-2.433035 0.17857,-3.013393 1.07143,-5.46875 2.34375,-6.473215 l 14.55357,4.598215 c 0.0893,0.02232 0.15625,0.02232 0.22322,0.02232 0.067,0 0.13393,0 0.22321,-0.02232 l 25,-7.857143 c 0.29018,-0.111607 0.49107,-0.379464 0.49107,-0.691964 z" />
    <g
       id="g4210"
       transform="translate(803.67511,-0.00224976)">
      <g
         id="g4212"
         transform="matrix(0.6,0,0,0.6,0,35.999828)">
        <path
           inkscape:connector-curvature="0"
           id="path4214"
           d="m 0,0 0,70 40.1875,0 c -0.861975,0 -1.633367,-0.131511 -2.34375,-0.375 -0.710397,-0.243489 -1.320858,-0.648437 -1.78125,-1.25 -0.458432,-0.615884 -0.758598,-1.45182 -0.9375,-2.46875 -0.165133,-1.031245 -0.150313,-2.296869 0.0625,-3.84375 l 1.59375,-11.59375 -1.96875,0 c -0.93741,1.025536 -1.856345,2.077413 -2.75,3.15625 -0.0094,0.04051 -0.02142,0.08494 -0.03125,0.125 -0.292164,1.19037 -0.774026,2.191318 -1.46875,2.96875 -5.222203,4.285304 -9.744091,2.670207 -11,2.125 C 18.530068,58.395556 18.067972,58.463854 16.40625,56.5 L 8.375,29 l 4.34375,-1.3125 2.375,7.40625 c 0.143434,0.450394 0.260176,0.960309 0.40625,1.5 0.141726,0.526095 0.286255,1.010943 0.40625,1.46875 l 0.40625,1.625 0.21875,-0.0625 c 0.09399,-0.55602 0.220203,-1.083521 0.40625,-1.59375 0.186044,-0.510181 0.43542,-1.006589 0.75,-1.4375 0.321947,-0.448241 0.716601,-0.842089 1.1875,-1.1875 0.470892,-0.345358 1.042894,-0.60718 1.6875,-0.8125 1.007914,-0.320979 2.007052,-0.364913 3,-0.125 0.992931,0.239968 1.928726,0.756624 2.84375,1.5625 0.915002,0.805928 1.796155,1.911859 2.59375,3.28125 0.809286,1.365705 1.507782,2.999577 2.125,4.9375 0.625877,1.965255 1.022345,3.747941 1.15625,5.34375 0.01813,0.202624 0.02094,0.397434 0.03125,0.59375 0.746773,-0.845443 1.508076,-1.688654 2.28125,-2.5 1.320472,-1.385665 2.670817,-2.712543 4.0625,-4 l 1.46875,-3.25 2.25,0 C 61.187192,24.803137 85.160316,17.261876 106.28125,16.125 c 8.82546,-0.475048 17.15711,0.179452 24.40625,1.8125 A 1.0001,1.0001 0 1 1 130.25,19.875 C 106.25319,14.469124 69.49934,20.362397 43.3125,42.3125 l -0.4375,3.25 4.8125,0 -0.6875,4.90625 -4.8125,0 -1.59375,11.59375 c -0.128089,0.930996 -0.03552,1.618495 0.28125,2.0625 0.316754,0.444015 0.792236,0.656255 1.40625,0.65625 0.531337,5e-6 1.039223,-0.07552 1.53125,-0.21875 0.503809,-0.143224 1.005753,-0.316401 1.53125,-0.53125 l -0.65625,4.875 c -0.551097,0.315105 -1.21673,0.580729 -2,0.78125 C 41.914044,69.902343 41.073071,70 40.1875,70 l 14.59375,0 c -0.861975,0 -1.633367,-0.131511 -2.34375,-0.375 -0.710397,-0.243489 -1.289608,-0.648437 -1.75,-1.25 -0.458432,-0.615884 -0.789848,-1.45182 -0.96875,-2.46875 -0.165133,-1.031245 -0.150313,-2.296869 0.0625,-3.84375 l 1.59375,-11.59375 -2.5625,0 0.375,-2.78125 3.28125,-2.1875 2.25,-5.0625 3.4375,0 -0.6875,5.125 4.8125,0 -0.6875,4.90625 -4.8125,0 -1.59375,11.59375 c -0.128089,0.930996 -0.03552,1.618495 0.28125,2.0625 0.316754,0.444015 0.792236,0.656255 1.40625,0.65625 0.531337,5e-6 1.039223,-0.07552 1.53125,-0.21875 0.503809,-0.143224 1.037003,-0.316401 1.5625,-0.53125 l -0.6875,4.875 c -0.551097,0.315105 -1.21673,0.580729 -2,0.78125 C 56.507794,69.902343 55.666821,70 54.78125,70 l 11.125,0 -2.125,-24.375 5.875,0 L 70.125,59.5 c 0.03338,0.828983 0.04359,1.692069 0,2.59375 -0.02822,0.887154 -0.104459,1.69363 -0.21875,2.40625 l 0.125,0 c 0.200518,-0.770793 0.451367,-1.579433 0.78125,-2.4375 0.345258,-0.872594 0.708472,-1.733517 1.09375,-2.5625 L 78.25,45.625 l 5.90625,0 L 71.6875,70 82.09375,70 c -0.538609,0 -1.021395,-0.0893 -1.4375,-0.28125 -0.416111,-0.191949 -0.746786,-0.4911 -1,-0.875 -0.252155,-0.389382 -0.429757,-0.881931 -0.5,-1.46875 -0.06469,-0.592299 0.0021,-1.267276 0.15625,-2.0625 0.156312,-0.806183 0.373209,-1.521724 0.65625,-2.125 0.283037,-0.603263 0.59489,-1.09964 0.96875,-1.5 0.379406,-0.405828 0.793233,-0.703323 1.25,-0.90625 0.461246,-0.202909 0.95707,-0.312491 1.46875,-0.3125 0.498203,9e-6 0.917932,0.09479 1.28125,0.28125 0.368855,0.18099 0.665831,0.456031 0.875,0.8125 0.213641,0.356486 0.359144,0.791501 0.40625,1.3125 0.05264,0.515528 0.0047,1.112174 -0.125,1.78125 l -0.25,1.21875 -4.59375,0 c -0.05908,0.350997 -0.05675,0.652321 -0.03125,0.9375 0.03104,0.279701 0.108911,0.521319 0.21875,0.71875 0.115383,0.191952 0.246746,0.333301 0.4375,0.4375 0.195234,0.104203 0.444955,0.156252 0.71875,0.15625 0.228902,2e-6 0.448951,-0.0038 0.65625,-0.03125 0.21284,-0.0329 0.420297,-0.09592 0.625,-0.15625 0.204691,-0.06033 0.388218,-0.131 0.59375,-0.21875 0.206582,-0.09323 0.435361,-0.191844 0.65625,-0.3125 l -0.375,1.9375 c -0.201872,0.11517 -0.393783,0.230236 -0.59375,0.3125 -0.194428,0.07678 -0.412396,0.132657 -0.625,0.1875 -0.212616,0.05484 -0.449857,0.103063 -0.6875,0.125 C 82.605033,69.996171 82.372025,70 82.09375,70 l 5.03125,0 c -0.178924,0 -0.345259,-0.01414 -0.5,-0.0625 -0.154745,-0.04352 -0.290194,-0.1172 -0.40625,-0.21875 -0.116058,-0.10155 -0.213551,-0.251507 -0.28125,-0.40625 -0.06287,-0.154743 -0.09375,-0.313642 -0.09375,-0.53125 -10e-7,-0.227278 0.03088,-0.439005 0.09375,-0.59375 0.0677,-0.159577 0.165192,-0.278284 0.28125,-0.375 0.116056,-0.09671 0.251505,-0.175226 0.40625,-0.21875 0.154741,-0.04352 0.321076,-0.0625 0.5,-0.0625 0.169248,2e-6 0.31884,0.01898 0.46875,0.0625 0.15474,0.04352 0.29019,0.122038 0.40625,0.21875 0.116054,0.09672 0.213547,0.215423 0.28125,0.375 0.0677,0.154745 0.09375,0.366472 0.09375,0.59375 -3e-6,0.217608 -0.02605,0.376507 -0.09375,0.53125 C 88.213547,69.467243 88.116054,69.6172 88,69.71875 87.88394,69.8203 87.74849,69.893978 87.59375,69.9375 87.44384,69.985857 87.294248,70 87.125,70 l 3.4375,0 -0.21875,-9.21875 2.28125,0 -0.1875,5.25 c -0.0083,0.31295 -0.0227,0.659606 -0.0625,1 -0.03351,0.33491 -0.09408,0.637229 -0.15625,0.90625 l 0.0625,0 c 0.09683,-0.290983 0.226162,-0.613571 0.375,-0.9375 0.155126,-0.329414 0.299339,-0.6558 0.46875,-0.96875 l 2.8125,-5.25 2.25,0 L 92.78125,70 l 3.5,0 C 96.102326,70 95.904741,69.985857 95.75,69.9375 95.595255,69.893978 95.459806,69.8203 95.34375,69.71875 95.227692,69.6172 95.161449,69.467243 95.09375,69.3125 95.030885,69.157757 94.999999,68.998858 95,68.78125 c -10e-7,-0.227278 0.03088,-0.439005 0.09375,-0.59375 0.0677,-0.159577 0.133942,-0.278284 0.25,-0.375 0.116056,-0.09671 0.251505,-0.175226 0.40625,-0.21875 0.154741,-0.04352 0.352326,-0.0625 0.53125,-0.0625 0.169248,2e-6 0.31884,0.01898 0.46875,0.0625 0.15474,0.04352 0.29019,0.122038 0.40625,0.21875 0.116054,0.09672 0.213547,0.215423 0.28125,0.375 0.0677,0.154745 0.09375,0.366472 0.09375,0.59375 -3e-6,0.217608 -0.02605,0.376507 -0.09375,0.53125 -0.0677,0.154743 -0.165196,0.3047 -0.28125,0.40625 C 97.04019,69.8203 96.90474,69.893978 96.75,69.9375 96.60009,69.985857 96.450498,70 96.28125,70 L 103,70 l 0,-20 7,0 0,20 8,0 0,-20 7,0 0,20 8,0 0,-20 7,0 0,20 8,0 0,-20 7,0 0,20 8,0 0,-20 7,0 0,20 8,0 0,-20 7,0 0,20 15,0 L 200,0 0,0 Z m 144,19.875 c 3.52238,0 6.375,2.852628 6.375,6.375 0,3.52238 -2.85262,6.40625 -6.375,6.40625 -3.52238,0 -6.375,-2.88387 -6.375,-6.40625 0,-3.522372 2.85262,-6.375 6.375,-6.375 z m -41,16.625 82,0 0,8 -82,0 0,-8 z m -81.875,3.53125 c -0.257679,0.0041 -0.508762,0.03822 -0.78125,0.125 -0.597726,0.190386 -1.066918,0.481345 -1.40625,0.875 -0.331968,0.376317 -0.559233,0.850445 -0.65625,1.4375 -0.09702,0.587094 -0.06806,1.309785 0.0625,2.125 0.1262,0.801602 0.32245,1.718989 0.625,2.75 L 19.1875,48 c 0.352061,1.10546 0.714436,2.080064 1.09375,2.90625 0.391023,0.822476 0.805255,1.495285 1.25,2 0.440386,0.491086 0.919949,0.802888 1.4375,0.96875 0.529254,0.162145 1.11711,0.139064 1.75,-0.0625 1.066509,-0.33966 1.662796,-1.169536 1.78125,-2.5 0.125804,-1.347822 -0.15784,-3.1544 -0.875,-5.40625 -0.71718,-2.251818 -1.514637,-3.853888 -2.375,-4.8125 -0.639755,-0.731962 -1.351963,-1.07476 -2.125,-1.0625 z M 83.3125,62.25 c -0.363563,8e-6 -0.697021,0.156154 -1,0.46875 -0.298499,0.312611 -0.521868,0.799675 -0.6875,1.46875 l 2.625,0 c 0.04974,-0.279692 0.07063,-0.54542 0.0625,-0.78125 C 84.3044,63.170433 84.26225,62.982519 84.1875,62.8125 84.1138,62.63701 84.017435,62.504974 83.875,62.40625 83.732553,62.307541 83.527936,62.250008 83.3125,62.25 Z"
           style="fill:#e20a17;fill-opacity:1;stroke:none" />
        <rect
           y="69.999573"
           x="178"
           height="20"
           width="7"
           id="rect4216"
           style="fill:#e20a17;fill-opacity:1;stroke:none" />
        <rect
           style="fill:#e20a17;fill-opacity:1;stroke:none"
           id="rect4218"
           width="7"
           height="20"
           x="163"
           y="69.999573" />
        <rect
           y="69.999573"
           x="148"
           height="20"
           width="7"
           id="rect4220"
           style="fill:#e20a17;fill-opacity:1;stroke:none" />
        <rect
           style="fill:#e20a17;fill-opacity:1;stroke:none"
           id="rect4222"
           width="7"
           height="20"
           x="133"
           y="69.999573" />
        <rect
           y="69.999573"
           x="118"
           height="20"
           width="7"
           id="rect4224"
           style="fill:#e20a17;fill-opacity:1;stroke:none" />
        <rect
           style="fill:#e20a17;fill-opacity:1;stroke:none"
           id="rect4226"
           width="7"
           height="20"
           x="103"
           y="69.999573" />
      </g>
      <rect
         style="fill:#e20a17;fill-opacity:1;fill-rule:evenodd;stroke:#ffffff;stroke-width:1.02135241px;stroke-linecap:butt;stroke-linejoin:miter;stroke-opacity:1"
         id="rect4228"
         width="17.826416"
         height="25.175499"
         x="82.083061"
         y="47.363121"
         ry="4.0196171"
         transform="matrix(0.96592583,-0.25881905,0.25881905,0.96592583,0,0)" />
      <rect
         ry="4.0196171"
         y="-39.074451"
         x="109.0247"
         height="25.175499"
         width="17.826416"
         id="rect4230"
         style="fill:#ffffff;fill-opacity:1;fill-rule:evenodd;stroke:#e20a17;stroke-width:1.02135241px;stroke-linecap:butt;stroke-linejoin:miter;stroke-opacity:1"
         transform="matrix(0.8660254,0.5,-0.5,0.8660254,0,0)" />
    </g>
    <path
       d="m 1015.7215,53.799518 -12.8125,4.040179 c -0.3571,0.111607 -0.7143,0.15625 -1.0714,0.15625 -0.3572,0 -0.7143,-0.04464 -1.0714,-0.15625 l -12.81255,-4.040179 -0.40179,7.053572 c -0.17857,3.147321 6.40625,5.714286 14.28574,5.714286 7.8794,0 14.4643,-2.566965 14.2857,-5.714286 l -0.4018,-7.053572 z m 11.8304,-7.232142 c 0,-0.3125 -0.2009,-0.580358 -0.4911,-0.691965 l -25,-7.857143 c -0.089,-0.02232 -0.1563,-0.02232 -0.2232,-0.02232 -0.067,0 -0.1339,0 -0.2232,0.02232 l -25.00004,7.857143 c -0.29017,0.111607 -0.49107,0.379465 -0.49107,0.691965 0,0.3125 0.2009,0.580357 0.49107,0.691964 l 7.43304,2.321428 c -1.38393,1.941965 -2.05357,4.754465 -2.1875,7.366072 -0.84821,0.491071 -1.45089,1.40625 -1.45089,2.477678 0,1.004465 0.51339,1.875 1.29464,2.388393 l -1.29464,9.665179 c -0.0223,0.200893 0.0446,0.401786 0.17857,0.558036 0.13393,0.15625 0.33482,0.245535 0.53571,0.245535 l 4.28572,0 c 0.20089,0 0.40178,-0.08928 0.53571,-0.245535 0.13393,-0.15625 0.20089,-0.357143 0.17857,-0.558036 l -1.29464,-9.665179 c 0.78125,-0.513393 1.29464,-1.383928 1.29464,-2.388393 0,-1.049107 -0.55803,-1.941964 -1.40625,-2.433035 0.17857,-3.013393 1.07143,-5.46875 2.34375,-6.473215 l 14.55361,4.598215 c 0.089,0.02232 0.1562,0.02232 0.2232,0.02232 0.067,0 0.1339,0 0.2232,-0.02232 l 25,-7.857143 c 0.2902,-0.111607 0.4911,-0.379464 0.4911,-0.691964 z"
       style="font-style:normal;font-variant:normal;font-weight:normal;font-stretch:normal;font-size:medium;line-height:125%;font-family:FontAwesome;-inkscape-font-specification:'FontAwesome, Normal';text-align:start;letter-spacing:0px;word-spacing:0px;writing-mode:lr-tb;text-anchor:start;fill:#e20a17;fill-opacity:1;stroke:none;stroke-width:1px;stroke-linecap:butt;stroke-linejoin:miter;stroke-opacity:1"
       id="path4232"
       inkscape:connector-curvature="0" />
    <g
       transform="translate(1071.5668,-0.00224976)"
       id="g4234">
      <g
         transform="matrix(0.6,0,0,0.6,0,35.999828)"
         id="g4236">
        <path
           style="fill:#e20a17;fill-opacity:1;stroke:none"
           d="m 0,0 0,70 40.1875,0 c -0.861975,0 -1.633367,-0.131511 -2.34375,-0.375 -0.710397,-0.243489 -1.320858,-0.648437 -1.78125,-1.25 -0.458432,-0.615884 -0.758598,-1.45182 -0.9375,-2.46875 -0.165133,-1.031245 -0.150313,-2.296869 0.0625,-3.84375 l 1.59375,-11.59375 -1.96875,0 c -0.93741,1.025536 -1.856345,2.077413 -2.75,3.15625 -0.0094,0.04051 -0.02142,0.08494 -0.03125,0.125 -0.292164,1.19037 -0.774026,2.191318 -1.46875,2.96875 -5.222203,4.285304 -9.744091,2.670207 -11,2.125 C 18.530068,58.395556 18.067972,58.463854 16.40625,56.5 L 8.375,29 l 4.34375,-1.3125 2.375,7.40625 c 0.143434,0.450394 0.260176,0.960309 0.40625,1.5 0.141726,0.526095 0.286255,1.010943 0.40625,1.46875 l 0.40625,1.625 0.21875,-0.0625 c 0.09399,-0.55602 0.220203,-1.083521 0.40625,-1.59375 0.186044,-0.510181 0.43542,-1.006589 0.75,-1.4375 0.321947,-0.448241 0.716601,-0.842089 1.1875,-1.1875 0.470892,-0.345358 1.042894,-0.60718 1.6875,-0.8125 1.007914,-0.320979 2.007052,-0.364913 3,-0.125 0.992931,0.239968 1.928726,0.756624 2.84375,1.5625 0.915002,0.805928 1.796155,1.911859 2.59375,3.28125 0.809286,1.365705 1.507782,2.999577 2.125,4.9375 0.625877,1.965255 1.022345,3.747941 1.15625,5.34375 0.01813,0.202624 0.02094,0.397434 0.03125,0.59375 0.746773,-0.845443 1.508076,-1.688654 2.28125,-2.5 1.320472,-1.385665 2.670817,-2.712543 4.0625,-4 l 1.46875,-3.25 2.25,0 C 61.187192,24.803137 85.160316,17.261876 106.28125,16.125 c 8.82546,-0.475048 17.15711,0.179452 24.40625,1.8125 A 1.0001,1.0001 0 1 1 130.25,19.875 C 106.25319,14.469124 69.49934,20.362397 43.3125,42.3125 l -0.4375,3.25 4.8125,0 -0.6875,4.90625 -4.8125,0 -1.59375,11.59375 c -0.128089,0.930996 -0.03552,1.618495 0.28125,2.0625 0.316754,0.444015 0.792236,0.656255 1.40625,0.65625 0.531337,5e-6 1.039223,-0.07552 1.53125,-0.21875 0.503809,-0.143224 1.005753,-0.316401 1.53125,-0.53125 l -0.65625,4.875 c -0.551097,0.315105 -1.21673,0.580729 -2,0.78125 C 41.914044,69.902343 41.073071,70 40.1875,70 l 14.59375,0 c -0.861975,0 -1.633367,-0.131511 -2.34375,-0.375 -0.710397,-0.243489 -1.289608,-0.648437 -1.75,-1.25 -0.458432,-0.615884 -0.789848,-1.45182 -0.96875,-2.46875 -0.165133,-1.031245 -0.150313,-2.296869 0.0625,-3.84375 l 1.59375,-11.59375 -2.5625,0 0.375,-2.78125 3.28125,-2.1875 2.25,-5.0625 3.4375,0 -0.6875,5.125 4.8125,0 -0.6875,4.90625 -4.8125,0 -1.59375,11.59375 c -0.128089,0.930996 -0.03552,1.618495 0.28125,2.0625 0.316754,0.444015 0.792236,0.656255 1.40625,0.65625 0.531337,5e-6 1.039223,-0.07552 1.53125,-0.21875 0.503809,-0.143224 1.037003,-0.316401 1.5625,-0.53125 l -0.6875,4.875 c -0.551097,0.315105 -1.21673,0.580729 -2,0.78125 C 56.507794,69.902343 55.666821,70 54.78125,70 l 11.125,0 -2.125,-24.375 5.875,0 L 70.125,59.5 c 0.03338,0.828983 0.04359,1.692069 0,2.59375 -0.02822,0.887154 -0.104459,1.69363 -0.21875,2.40625 l 0.125,0 c 0.200518,-0.770793 0.451367,-1.579433 0.78125,-2.4375 0.345258,-0.872594 0.708472,-1.733517 1.09375,-2.5625 L 78.25,45.625 l 5.90625,0 L 71.6875,70 82.09375,70 c -0.538609,0 -1.021395,-0.0893 -1.4375,-0.28125 -0.416111,-0.191949 -0.746786,-0.4911 -1,-0.875 -0.252155,-0.389382 -0.429757,-0.881931 -0.5,-1.46875 -0.06469,-0.592299 0.0021,-1.267276 0.15625,-2.0625 0.156312,-0.806183 0.373209,-1.521724 0.65625,-2.125 0.283037,-0.603263 0.59489,-1.09964 0.96875,-1.5 0.379406,-0.405828 0.793233,-0.703323 1.25,-0.90625 0.461246,-0.202909 0.95707,-0.312491 1.46875,-0.3125 0.498203,9e-6 0.917932,0.09479 1.28125,0.28125 0.368855,0.18099 0.665831,0.456031 0.875,0.8125 0.213641,0.356486 0.359144,0.791501 0.40625,1.3125 0.05264,0.515528 0.0047,1.112174 -0.125,1.78125 l -0.25,1.21875 -4.59375,0 c -0.05908,0.350997 -0.05675,0.652321 -0.03125,0.9375 0.03104,0.279701 0.108911,0.521319 0.21875,0.71875 0.115383,0.191952 0.246746,0.333301 0.4375,0.4375 0.195234,0.104203 0.444955,0.156252 0.71875,0.15625 0.228902,2e-6 0.448951,-0.0038 0.65625,-0.03125 0.21284,-0.0329 0.420297,-0.09592 0.625,-0.15625 0.204691,-0.06033 0.388218,-0.131 0.59375,-0.21875 0.206582,-0.09323 0.435361,-0.191844 0.65625,-0.3125 l -0.375,1.9375 c -0.201872,0.11517 -0.393783,0.230236 -0.59375,0.3125 -0.194428,0.07678 -0.412396,0.132657 -0.625,0.1875 -0.212616,0.05484 -0.449857,0.103063 -0.6875,0.125 C 82.605033,69.996171 82.372025,70 82.09375,70 l 5.03125,0 c -0.178924,0 -0.345259,-0.01414 -0.5,-0.0625 -0.154745,-0.04352 -0.290194,-0.1172 -0.40625,-0.21875 -0.116058,-0.10155 -0.213551,-0.251507 -0.28125,-0.40625 -0.06287,-0.154743 -0.09375,-0.313642 -0.09375,-0.53125 -10e-7,-0.227278 0.03088,-0.439005 0.09375,-0.59375 0.0677,-0.159577 0.165192,-0.278284 0.28125,-0.375 0.116056,-0.09671 0.251505,-0.175226 0.40625,-0.21875 0.154741,-0.04352 0.321076,-0.0625 0.5,-0.0625 0.169248,2e-6 0.31884,0.01898 0.46875,0.0625 0.15474,0.04352 0.29019,0.122038 0.40625,0.21875 0.116054,0.09672 0.213547,0.215423 0.28125,0.375 0.0677,0.154745 0.09375,0.366472 0.09375,0.59375 -3e-6,0.217608 -0.02605,0.376507 -0.09375,0.53125 C 88.213547,69.467243 88.116054,69.6172 88,69.71875 87.88394,69.8203 87.74849,69.893978 87.59375,69.9375 87.44384,69.985857 87.294248,70 87.125,70 l 3.4375,0 -0.21875,-9.21875 2.28125,0 -0.1875,5.25 c -0.0083,0.31295 -0.0227,0.659606 -0.0625,1 -0.03351,0.33491 -0.09408,0.637229 -0.15625,0.90625 l 0.0625,0 c 0.09683,-0.290983 0.226162,-0.613571 0.375,-0.9375 0.155126,-0.329414 0.299339,-0.6558 0.46875,-0.96875 l 2.8125,-5.25 2.25,0 L 92.78125,70 l 3.5,0 C 96.102326,70 95.904741,69.985857 95.75,69.9375 95.595255,69.893978 95.459806,69.8203 95.34375,69.71875 95.227692,69.6172 95.161449,69.467243 95.09375,69.3125 95.030885,69.157757 94.999999,68.998858 95,68.78125 c -10e-7,-0.227278 0.03088,-0.439005 0.09375,-0.59375 0.0677,-0.159577 0.133942,-0.278284 0.25,-0.375 0.116056,-0.09671 0.251505,-0.175226 0.40625,-0.21875 0.154741,-0.04352 0.352326,-0.0625 0.53125,-0.0625 0.169248,2e-6 0.31884,0.01898 0.46875,0.0625 0.15474,0.04352 0.29019,0.122038 0.40625,0.21875 0.116054,0.09672 0.213547,0.215423 0.28125,0.375 0.0677,0.154745 0.09375,0.366472 0.09375,0.59375 -3e-6,0.217608 -0.02605,0.376507 -0.09375,0.53125 -0.0677,0.154743 -0.165196,0.3047 -0.28125,0.40625 C 97.04019,69.8203 96.90474,69.893978 96.75,69.9375 96.60009,69.985857 96.450498,70 96.28125,70 L 103,70 l 0,-20 7,0 0,20 8,0 0,-20 7,0 0,20 8,0 0,-20 7,0 0,20 8,0 0,-20 7,0 0,20 8,0 0,-20 7,0 0,20 8,0 0,-20 7,0 0,20 15,0 L 200,0 0,0 Z m 144,19.875 c 3.52238,0 6.375,2.852628 6.375,6.375 0,3.52238 -2.85262,6.40625 -6.375,6.40625 -3.52238,0 -6.375,-2.88387 -6.375,-6.40625 0,-3.522372 2.85262,-6.375 6.375,-6.375 z m -41,16.625 82,0 0,8 -82,0 0,-8 z m -81.875,3.53125 c -0.257679,0.0041 -0.508762,0.03822 -0.78125,0.125 -0.597726,0.190386 -1.066918,0.481345 -1.40625,0.875 -0.331968,0.376317 -0.559233,0.850445 -0.65625,1.4375 -0.09702,0.587094 -0.06806,1.309785 0.0625,2.125 0.1262,0.801602 0.32245,1.718989 0.625,2.75 L 19.1875,48 c 0.352061,1.10546 0.714436,2.080064 1.09375,2.90625 0.391023,0.822476 0.805255,1.495285 1.25,2 0.440386,0.491086 0.919949,0.802888 1.4375,0.96875 0.529254,0.162145 1.11711,0.139064 1.75,-0.0625 1.066509,-0.33966 1.662796,-1.169536 1.78125,-2.5 0.125804,-1.347822 -0.15784,-3.1544 -0.875,-5.40625 -0.71718,-2.251818 -1.514637,-3.853888 -2.375,-4.8125 -0.639755,-0.731962 -1.351963,-1.07476 -2.125,-1.0625 z M 83.3125,62.25 c -0.363563,8e-6 -0.697021,0.156154 -1,0.46875 -0.298499,0.312611 -0.521868,0.799675 -0.6875,1.46875 l 2.625,0 c 0.04974,-0.279692 0.07063,-0.54542 0.0625,-0.78125 C 84.3044,63.170433 84.26225,62.982519 84.1875,62.8125 84.1138,62.63701 84.017435,62.504974 83.875,62.40625 83.732553,62.307541 83.527936,62.250008 83.3125,62.25 Z"
           id="path4238"
           inkscape:connector-curvature="0" />
        <rect
           style="fill:#e20a17;fill-opacity:1;stroke:none"
           id="rect4240"
           width="7"
           height="20"
           x="178"
           y="69.999573" />
        <rect
           y="69.999573"
           x="163"
           height="20"
           width="7"
           id="rect4242"
           style="fill:#e20a17;fill-opacity:1;stroke:none" />
        <rect
           style="fill:#e20a17;fill-opacity:1;stroke:none"
           id="rect4244"
           width="7"
           height="20"
           x="148"
           y="69.999573" />
        <rect
           y="69.999573"
           x="133"
           height="20"
           width="7"
           id="rect4246"
           style="fill:#e20a17;fill-opacity:1;stroke:none" />
        <rect
           style="fill:#e20a17;fill-opacity:1;stroke:none"
           id="rect4248"
           width="7"
           height="20"
           x="118"
           y="69.999573" />
        <rect
           y="69.999573"
           x="103"
           height="20"
           width="7"
           id="rect4250"
           style="fill:#e20a17;fill-opacity:1;stroke:none" />
      </g>
      <rect
         transform="matrix(0.96592583,-0.25881905,0.25881905,0.96592583,0,0)"
         ry="4.0196171"
         y="47.363121"
         x="82.083061"
         height="25.175499"
         width="17.826416"
         id="rect4252"
         style="fill:#e20a17;fill-opacity:1;fill-rule:evenodd;stroke:#ffffff;stroke-width:1.02135241px;stroke-linecap:butt;stroke-linejoin:miter;stroke-opacity:1" />
      <rect
         transform="matrix(0.8660254,0.5,-0.5,0.8660254,0,0)"
         style="fill:#ffffff;fill-opacity:1;fill-rule:evenodd;stroke:#e20a17;stroke-width:1.02135241px;stroke-linecap:butt;stroke-linejoin:miter;stroke-opacity:1"
         id="rect4254"
         width="17.826416"
         height="25.175499"
         x="109.0247"
         y="-39.074451"
         ry="4.0196171" />
    </g>
  </g>
</svg>
